PathFileType	4	(X/Y/Z)	c:/Users/goper/Files/vsCode/490R/osim_files/A06/A06_Fast_02.trc
DataRate	CameraRate	NumFrames	NumMarkers	Units                	OrigDataRate	OrigDataStartFrame	OrigNumFrames
120.00	120.00	4	36	mm	120.0	719	1149
                Frame#	Time	LPSIS			LASIS			LTH1			LTH2			LTH3			LTH4			LLFE			LMFE			LSH1			LSH2			LSH3			LSH4			LLMAL			LMMAL			LCAL			LMTP5			LTOE			LMTP1			RPSIS			RASIS			RTH1			RTH2			RTH3			RTH4			RLFE			RMFE			RSH1			RSH2			RSH3			RSH4			RLMAL			RMMAL			RCAL			RMTP1			RTOE			RMTP5		
		X1	Y1	Z1	X2	Y2	Z2	X3	Y3	Z3	X4	Y4	Z4	X5	Y5	Z5	X6	Y6	Z6	X7	Y7	Z7	X8	Y8	Z8	X9	Y9	Z9	X10	Y10	Z10	X11	Y11	Z11	X12	Y12	Z12	X13	Y13	Z13	X14	Y14	Z14	X15	Y15	Z15	X16	Y16	Z16	X17	Y17	Z17	X18	Y18	Z18	X19	Y19	Z19	X20	Y20	Z20	X21	Y21	Z21	X22	Y22	Z22	X23	Y23	Z23	X24	Y24	Z24	X25	Y25	Z25	X26	Y26	Z26	X27	Y27	Z27	X28	Y28	Z28	X29	Y29	Z29	X30	Y30	Z30	X31	Y31	Z31	X32	Y32	Z32	X33	Y33	Z33	X34	Y34	Z34	X35	Y35	Z35	X36	Y36	Z36

719	5.98333	-2608.57837	992.22772	316.66165	-2802.09473	939.87311	369.56445	-2672.18579	586.54980	398.63385	-2671.67920	544.28827	392.62329	-2733.17261	576.70544	381.68045	-2720.78198	535.04077	377.99988	-2677.09033	467.89749	372.92358	-2669.77832	465.01123	263.28366	-2599.92090	385.84918	389.96271	-2597.89160	339.59924	393.63110	-2658.42383	375.50153	379.92032	-2649.48218	335.35880	382.56345	-2549.58618	92.88151	346.69290	-2564.72632	104.37448	260.50327	-2481.19678	84.85799	297.03259	-2661.79150	42.44532	364.84396	-2700.77026	59.62239	308.62366	-2676.15796	53.69947	270.41815	-2600.15820	1011.97839	186.96031	-2773.25586	990.03625	119.10608	-2784.16187	600.93219	75.58533	-2805.67505	563.47980	74.46951	-2841.54028	625.15070	87.86368	-2855.06494	583.41028	83.72530	-2869.69775	465.87296	100.97587	-2865.45947	462.83255	189.59892	-2879.91602	308.96652	108.73460	-2891.41992	261.61752	109.81848	-2939.47437	317.35260	123.94891	-2942.77026	269.20905	118.82493	-2918.77002	125.94764	96.71174	-2924.80786	129.91251	182.20073	-2865.99243	91.06802	141.22720	-3064.28027	115.79472	183.61934	-3078.76294	132.10661	144.62526	-3060.07666	112.83492	93.90462
720	5.99167	-2617.09180	990.90057	315.72098	-2811.92480	938.05652	369.50430	-2678.46631	585.93726	398.26773	-2677.42017	543.67010	392.12982	-2738.72559	575.08917	380.87445	-2726.33301	533.70465	377.75381	-2681.80908	467.26627	372.74155	-2674.67139	464.54758	262.83295	-2603.52271	386.12979	389.56067	-2601.02319	339.93549	393.30618	-2662.44629	375.12939	379.64755	-2652.47632	334.74521	382.13135	-2550.12817	93.42261	346.66476	-2565.34009	104.65607	260.44391	-2481.48828	85.42208	296.98260	-2661.95825	42.34576	364.89389	-2701.09741	59.80329	308.88565	-2676.33618	53.48116	270.38757	-2610.29150	1009.97601	186.27425	-2783.55542	987.82257	118.83617	-2791.57520	596.92719	77.73656	-2814.10620	560.78406	74.12019	-2849.37915	622.36322	87.32371	-2863.15601	580.43835	83.14672	-2878.05396	462.96487	100.25410	-2874.17163	459.85788	188.90215	-2896.58716	306.75760	108.33318	-2910.50049	260.11606	109.49121	-2955.65625	318.28015	123.56963	-2961.44946	270.38208	118.40914	-2945.36548	126.20947	96.92369	-2950.67261	130.34085	182.07230	-2892.45923	88.97503	141.04552	-3090.58472	124.02792	183.46577	-3104.19067	140.89049	144.46036	-3086.57202	120.47387	93.80466
721	6.00000	-2628.62109	988.52551	315.27237	-2822.05762	936.17548	369.42398	-2684.69263	585.28583	397.90152	-2683.13794	543.07330	391.74088	-2745.46167	573.84802	381.34848	-2731.96313	532.41077	377.57895	-2686.45923	466.48730	372.52982	-2679.66284	464.13043	262.43332	-2608.79663	386.61633	391.09271	-2604.20654	340.21750	392.97366	-2666.66357	374.58890	379.68631	-2655.77051	334.21274	381.89322	-2550.67188	93.96614	346.69586	-2565.87549	104.96205	260.38818	-2481.33130	85.91570	297.23727	-2662.06641	42.21417	364.93686	-2701.28467	59.42591	308.86743	-2676.47559	53.25015	270.38895	-2620.48145	1007.85431	185.53160	-2793.90503	985.38055	118.50160	-2802.25073	595.79596	75.26057	-2824.06885	558.42059	73.88337	-2858.75537	620.12720	87.74364	-2873.30029	578.55536	83.06620	-2888.52905	461.01666	99.82372	-2884.82202	457.98520	188.35472	-2913.51538	305.54880	107.97571	-2929.06689	259.51480	109.25650	-2972.55859	319.93814	123.44118	-2979.43164	271.70837	118.00970	-2969.38135	127.01830	96.80046	-2974.98877	131.09000	181.69179	-2916.28760	88.41875	140.84401	-3114.81958	130.81169	183.41548	-3127.44946	148.42534	144.19090	-3110.74658	127.27051	93.62773
722	6.00833	-2637.07568	987.15051	314.13068	-2832.01953	934.06311	369.20901	-2691.07886	584.64795	397.55148	-2688.90356	542.24780	391.35150	-2751.69653	572.35468	381.24228	-2737.60742	531.00726	377.39404	-2691.33813	465.74991	372.31204	-2684.67188	463.51941	262.06641	-2612.63916	386.86832	390.76279	-2607.53540	340.52371	392.72015	-2670.48779	374.27692	379.03473	-2659.58472	333.94736	382.30972	-2551.33789	94.62463	346.72861	-2566.43530	105.37050	260.41428	-2481.73193	86.52289	297.49963	-2662.36621	42.26748	364.85291	-2701.53955	58.97004	308.83762	-2676.76953	53.04497	270.41818	-2630.22925	1005.90381	184.36781	-2804.28906	982.71680	118.20665	-2812.51196	593.52570	75.18367	-2834.69922	556.42572	73.76007	-2869.27563	618.65692	87.02618	-2883.83228	577.05853	82.80645	-2900.22070	459.62421	99.47462	-2896.83862	456.67844	188.00208	-2930.02466	305.09055	107.85730	-2946.96582	259.58170	109.11625	-2988.66626	321.19025	123.08490	-2997.18945	273.45642	117.84572	-2992.15771	127.77270	97.43730	-2997.19556	132.69925	181.67574	-2937.47876	89.04714	140.30829	-3136.83496	136.96236	183.12860	-3148.98096	154.60606	143.72945	-3132.72729	132.91333	93.27662
